<svg viewBox="204.8 198.656 618.496 618.496" xmlns="http://www.w3.org/2000/svg" version="1.1" id="svg">

<path style="fill: #FEC237;" transform="translate(611.95703125,295.12109375)" d="M0 0 C8.04714044 4.38492208 13.94275926 6.5335343 23.31640625 6.69140625 C49.93636396 8.03077519 73.66198209 26.08104055 92.04296875 43.87890625 C93.05810547 44.83410156 93.05810547 44.83410156 94.09375 45.80859375 C99.23279742 50.74680483 103.62517895 56.29892011 108.04296875 61.87890625 C108.66075195 62.65741943 108.66075195 62.65741943 109.29101562 63.45166016 C115.27385233 71.01778223 120.80112303 78.77524402 126.04296875 86.87890625 C126.91747113 88.21386778 127.79250228 89.54848302 128.66796875 90.8828125 C195.04036457 192.3442445 195.04036457 192.3442445 184.96630859 246.53393555 C182.88018482 255.79779273 179.3090439 264.42106973 175.04296875 272.87890625 C174.53121094 273.90242188 174.01945313 274.9259375 173.4921875 275.98046875 C167.95716553 286.17150176 160.18157123 294.82944781 152.70703125 303.62890625 C142.3820027 316.03526466 137.71652089 328.1583675 133.66601562 343.55322266 C131.32791269 352.28079656 128.86740994 359.98822585 121.078125 365.19140625 C114.3406026 368.70027867 106.77081032 369.2958129 99.48828125 367.11328125 C97.24111798 366.15993926 95.15609855 365.09850822 93.04296875 363.87890625 C92.03234375 363.30140625 91.02171875 362.72390625 89.98046875 362.12890625 C74.16573738 350.01549499 66.57260614 331.10679107 63.04296875 311.87890625 C62.5639965 307.54955513 62.24646276 303.22946792 62.04296875 298.87890625 C61.38296875 298.87890625 60.72296875 298.87890625 60.04296875 298.87890625 C59.86991211 300.18831177 59.86991211 300.18831177 59.69335938 301.52416992 C59.04504617 304.86819086 58.06549768 307.47251012 56.63671875 310.5546875 C55.89881104 312.15509888 55.89881104 312.15509888 55.14599609 313.7878418 C54.35249756 315.4726062 54.35249756 315.4726062 53.54296875 317.19140625 C52.99979004 318.35260986 52.45661133 319.51381348 51.89697266 320.71020508 C43.05637056 339.47273697 33.44099416 356.94412235 20.04296875 372.87890625 C19.16759304 373.93979427 18.29261706 375.0010122 17.41796875 376.0625 C-9.00130155 407.93233667 -44.47174991 429.98277947 -86.0546875 434.49609375 C-125.68972461 437.97285139 -162.00652685 425.00330734 -192.83203125 400.31640625 C-194.5544548 398.85367117 -196.26245787 397.37381691 -197.95703125 395.87890625 C-198.45428711 395.44191406 -198.95154297 395.00492188 -199.46386719 394.5546875 C-227.99186318 369.3611326 -248.10624446 334.43861765 -260.95703125 298.87890625 C-261.04678223 299.45108887 -261.1365332 300.02327148 -261.22900391 300.61279297 C-264.2181307 319.25854152 -267.91327178 336.27409727 -278.95703125 351.87890625 C-279.58544922 352.81089844 -279.58544922 352.81089844 -280.2265625 353.76171875 C-285.12086863 360.36816731 -293.83418376 366.26011814 -301.95703125 367.87890625 C-309.38932059 368.68457447 -315.8627867 368.52527413 -321.95703125 363.87890625 C-329.53186746 357.2684229 -331.75741816 349.31132572 -334.3203125 339.890625 C-338.72086237 323.77406271 -344.53202884 312.54176509 -355.5625 299.890625 C-378.96082992 272.97171304 -388.39554854 245.69896442 -385.95703125 209.87890625 C-385.29687962 203.98090132 -383.84133575 198.4915509 -381.95703125 192.87890625 C-381.74224121 192.1940918 -381.52745117 191.50927734 -381.30615234 190.80371094 C-373.63863791 166.58645745 -360.79134204 143.66876321 -347.95703125 121.87890625 C-347.36809082 120.86876465 -346.77915039 119.85862305 -346.17236328 118.81787109 C-334.61812746 99.02421478 -322.29628022 79.78413308 -307.95703125 61.87890625 C-306.96123047 60.57759766 -306.96123047 60.57759766 -305.9453125 59.25 C-287.82377541 36.08894974 -261.84088859 13.32519504 -231.95703125 7.87890625 C-229.72130885 7.66041863 -227.48979449 7.52403491 -225.24731445 7.39404297 C-215.16429972 6.79347739 -207.81966569 3.84769618 -198.85717773 -0.73535156 C-141.75432551 -29.7438847 -56.8502606 -31.08110125 0 0 Z"/>
<path style="fill: #1A1614;" transform="translate(611.95703125,295.12109375)" d="M0 0 C8.04714044 4.38492208 13.94275926 6.5335343 23.31640625 6.69140625 C49.93636396 8.03077519 73.66198209 26.08104055 92.04296875 43.87890625 C93.05810547 44.83410156 93.05810547 44.83410156 94.09375 45.80859375 C99.23279742 50.74680483 103.62517895 56.29892011 108.04296875 61.87890625 C108.66075195 62.65741943 108.66075195 62.65741943 109.29101562 63.45166016 C115.27385233 71.01778223 120.80112303 78.77524402 126.04296875 86.87890625 C126.91747113 88.21386778 127.79250228 89.54848302 128.66796875 90.8828125 C195.04036457 192.3442445 195.04036457 192.3442445 184.96630859 246.53393555 C182.88018482 255.79779273 179.3090439 264.42106973 175.04296875 272.87890625 C174.53121094 273.90242188 174.01945313 274.9259375 173.4921875 275.98046875 C167.95716553 286.17150176 160.18157123 294.82944781 152.70703125 303.62890625 C142.3820027 316.03526466 137.71652089 328.1583675 133.66601562 343.55322266 C131.32791269 352.28079656 128.86740994 359.98822585 121.078125 365.19140625 C114.3406026 368.70027867 106.77081032 369.2958129 99.48828125 367.11328125 C97.24111798 366.15993926 95.15609855 365.09850822 93.04296875 363.87890625 C92.03234375 363.30140625 91.02171875 362.72390625 89.98046875 362.12890625 C74.16573738 350.01549499 66.57260614 331.10679107 63.04296875 311.87890625 C62.5639965 307.54955513 62.24646276 303.22946792 62.04296875 298.87890625 C61.38296875 298.87890625 60.72296875 298.87890625 60.04296875 298.87890625 C59.86991211 300.18831177 59.86991211 300.18831177 59.69335938 301.52416992 C59.04504617 304.86819086 58.06549768 307.47251012 56.63671875 310.5546875 C55.89881104 312.15509888 55.89881104 312.15509888 55.14599609 313.7878418 C54.35249756 315.4726062 54.35249756 315.4726062 53.54296875 317.19140625 C52.99979004 318.35260986 52.45661133 319.51381348 51.89697266 320.71020508 C43.05637056 339.47273697 33.44099416 356.94412235 20.04296875 372.87890625 C19.16759304 373.93979427 18.29261706 375.0010122 17.41796875 376.0625 C-9.00130155 407.93233667 -44.47174991 429.98277947 -86.0546875 434.49609375 C-125.68972461 437.97285139 -162.00652685 425.00330734 -192.83203125 400.31640625 C-194.5544548 398.85367117 -196.26245787 397.37381691 -197.95703125 395.87890625 C-198.45428711 395.44191406 -198.95154297 395.00492188 -199.46386719 394.5546875 C-227.99186318 369.3611326 -248.10624446 334.43861765 -260.95703125 298.87890625 C-261.04678223 299.45108887 -261.1365332 300.02327148 -261.22900391 300.61279297 C-264.2181307 319.25854152 -267.91327178 336.27409727 -278.95703125 351.87890625 C-279.58544922 352.81089844 -279.58544922 352.81089844 -280.2265625 353.76171875 C-285.12086863 360.36816731 -293.83418376 366.26011814 -301.95703125 367.87890625 C-309.38932059 368.68457447 -315.8627867 368.52527413 -321.95703125 363.87890625 C-329.53186746 357.2684229 -331.75741816 349.31132572 -334.3203125 339.890625 C-338.72086237 323.77406271 -344.53202884 312.54176509 -355.5625 299.890625 C-378.96082992 272.97171304 -388.39554854 245.69896442 -385.95703125 209.87890625 C-385.29687962 203.98090132 -383.84133575 198.4915509 -381.95703125 192.87890625 C-381.74224121 192.1940918 -381.52745117 191.50927734 -381.30615234 190.80371094 C-373.63863791 166.58645745 -360.79134204 143.66876321 -347.95703125 121.87890625 C-347.36809082 120.86876465 -346.77915039 119.85862305 -346.17236328 118.81787109 C-334.61812746 99.02421478 -322.29628022 79.78413308 -307.95703125 61.87890625 C-306.96123047 60.57759766 -306.96123047 60.57759766 -305.9453125 59.25 C-287.82377541 36.08894974 -261.84088859 13.32519504 -231.95703125 7.87890625 C-229.72130885 7.66041863 -227.48979449 7.52403491 -225.24731445 7.39404297 C-215.16429972 6.79347739 -207.81966569 3.84769618 -198.85717773 -0.73535156 C-141.75432551 -29.7438847 -56.8502606 -31.08110125 0 0 Z M-149.95703125 1.12890625 C-150.96902588 1.34506592 -151.98102051 1.56122559 -153.02368164 1.78393555 C-173.91248862 6.40812492 -193.64728012 13.7453486 -209.95703125 27.87890625 C-210.61832031 28.45125 -211.27960938 29.02359375 -211.9609375 29.61328125 C-244.18811169 59.82158374 -255.95181857 108.90358874 -260.95703125 150.87890625 C-261.04405807 151.57306137 -261.1310849 152.26721649 -261.2207489 152.98240662 C-262.06317776 160.34064679 -262.11856228 167.65442518 -262.125 175.0546875 C-262.1282291 176.42823823 -262.13159428 177.80178865 -262.13508606 179.17533875 C-262.1410472 182.05399363 -262.14292976 184.93261868 -262.14233398 187.8112793 C-262.14225375 190.69741219 -262.1490339 193.58338289 -262.1628418 196.46948242 C-262.20532137 205.60297533 -262.16471837 214.73122672 -261.99359131 223.86336517 C-261.95784188 225.83421654 -261.92988032 227.80520428 -261.90209961 229.77618408 C-261.54010786 248.306757 -257.9758207 263.19405898 -250.58203125 280.12890625 C-249.66468548 282.3128876 -248.75032471 284.49812502 -247.83886719 286.68457031 C-245.27891733 292.77967273 -242.64025707 298.83716923 -239.95703125 304.87890625 C-239.61385864 305.65234375 -239.27068604 306.42578125 -238.91711426 307.22265625 C-235.49626509 314.89565488 -231.88702404 322.45254169 -227.95703125 329.87890625 C-227.59254883 330.57612793 -227.22806641 331.27334961 -226.85253906 331.99169922 C-206.51057068 370.51584795 -172.88433338 400.8339189 -131.12890625 413.87109375 C-120.94027524 416.53702419 -110.69964367 417.24241909 -100.20703125 417.19140625 C-98.98129395 417.1857666 -97.75555664 417.18012695 -96.49267578 417.17431641 C-87.02713718 417.04814254 -78.10189702 416.34976573 -68.95703125 413.87890625 C-67.88050293 413.58886719 -67.88050293 413.58886719 -66.78222656 413.29296875 C-43.8843521 406.86688705 -24.90720145 394.27484745 -7.95703125 377.87890625 C-7.03148437 377.00492188 -6.1059375 376.1309375 -5.15234375 375.23046875 C11.7179531 358.93366641 24.18264945 339.05078159 34.04296875 317.87890625 C34.36233398 317.21068848 34.68169922 316.5424707 35.01074219 315.85400391 C40.91804284 303.47887703 45.95203566 290.7539397 50.98046875 278.00390625 C51.31547394 277.15463562 51.65047913 276.30536499 51.99563599 275.43035889 C52.96072923 272.97936132 53.92264186 270.52714851 54.8828125 268.07421875 C55.17203583 267.33741882 55.46125916 266.6006189 55.75924683 265.8414917 C56.29496773 264.4668994 56.82487177 263.09002134 57.34803772 261.71060181 C57.94034027 260.14941387 58.5536931 258.59623895 59.17138672 257.04492188 C60.44586769 252.41537868 60.78573609 247.80552518 61.1484375 243.02734375 C61.23232224 241.93996918 61.31620697 240.8525946 61.40263367 239.73226929 C62.31283834 226.73373154 62.38196343 213.7284874 62.35864258 200.70507812 C62.35400943 197.9077141 62.3609654 195.11078481 62.37915039 192.31347656 C62.65559861 149.32074822 57.3729418 105.82885194 38.04296875 66.87890625 C37.47964844 65.72519531 36.91632813 64.57148438 36.3359375 63.3828125 C22.42007471 36.23547362 1.46176056 16.78600234 -27.65625 7.25390625 C-28.72818604 6.91166016 -28.72818604 6.91166016 -29.82177734 6.5625 C-31.90154413 5.89667025 -33.96966608 5.2011758 -36.0390625 4.50390625 C-47.47108328 0.77966312 -59.03700594 -0.79524591 -70.95703125 -2.12109375 C-71.68809082 -2.21753174 -72.41915039 -2.31396973 -73.17236328 -2.41333008 C-81.21547156 -3.39022934 -89.29543269 -3.3071665 -97.38525391 -3.30639648 C-99.92367792 -3.30856525 -102.46165349 -3.32672345 -105 -3.34570312 C-120.2116395 -3.39947605 -135.06719823 -2.07503776 -149.95703125 1.12890625 Z"/>
<path style="fill: #FEC237;" transform="translate(645,322)" d="M0 0 C18.33690622 1.87773629 34.25541187 16.7146763 47 29 C47.63164063 29.58007812 48.26328125 30.16015625 48.9140625 30.7578125 C74.73428094 55.10958249 93.33968992 91.11325532 110 122 C110.47969238 122.88558594 110.95938477 123.77117187 111.45361328 124.68359375 C127.38904293 154.22893551 142.99363144 185.65172104 134.5 220.1875 C133.74225568 222.48466173 132.90494961 224.75674463 132 227 C131.72623535 227.680625 131.4524707 228.36125 131.17041016 229.0625 C126.12979653 241.30203879 119.25816051 251.15446106 110.54833984 261.1027832 C97.66833116 275.8451331 89.28391817 291.28946847 84.73535156 310.4284668 C82.2467097 320.7532903 82.2467097 320.7532903 79 324 C74.59620535 324.37320294 72.00222246 324.4802316 68 322.5625 C49.92804051 307.12603461 46.26194494 284.0586215 44.23876953 261.47705078 C43.08962985 244.74285108 43.74849198 227.95404845 45 211.25 C50.1595461 141.89179713 45.23830556 63.81962944 3.13818359 5.7097168 C1.91580526 3.87352729 0.94791832 1.98975732 0 0 Z"/>
<path style="fill: #FEC237;" transform="translate(379,323)" d="M0 0 C-0.59425781 0.77859375 -1.18851563 1.5571875 -1.80078125 2.359375 C-37.45552534 50.05196467 -46.23834511 110.49107699 -46.13037109 168.51049805 C-46.12501447 171.92826788 -46.13034644 175.34590603 -46.13671875 178.76367188 C-46.13971788 188.94891696 -46.03190219 199.08102909 -45.37425232 209.24580383 C-44.80064617 218.48116984 -44.74000562 227.7237521 -44.70483398 236.97460938 C-44.69333672 239.06419661 -44.67292087 241.153755 -44.64331055 243.24316406 C-44.29817522 267.79211942 -45.97257878 295.97727721 -61.375 316.3125 C-65.41551509 320.44921783 -68.83779681 322.74774296 -74.75 323.4375 C-78.32537069 322.9562001 -78.85493727 322.71391915 -81 320 C-81.9921875 317.71484375 -81.9921875 317.71484375 -82.875 314.9375 C-83.21660156 313.87273437 -83.55820312 312.80796875 -83.91015625 311.7109375 C-84.69680534 309.03238325 -85.43195508 306.36719557 -86.12109375 303.6640625 C-90.61487072 286.15389276 -98.91391588 272.76180099 -111.0625 259.5 C-130.39093536 238.0714932 -137.55219449 214.61219077 -136.23193359 186.04541016 C-135.74860403 179.69903858 -134.22354589 173.96885408 -132 168 C-131.68417969 167.0409375 -131.36835938 166.081875 -131.04296875 165.09375 C-118.7466442 130.092976 -98.0168967 96.40300602 -77 66 C-76.52320801 65.30680664 -76.04641602 64.61361328 -75.55517578 63.89941406 C-66.79963462 51.20345749 -57.51465559 39.31035925 -47 28 C-46.37738281 27.32324219 -45.75476563 26.64648438 -45.11328125 25.94921875 C-36.52252058 16.96223852 -13.53995791 -4.2020559 0 0 Z"/>
<path style="fill: #1A1614;" transform="translate(551,510)" d="M0 0 C5.25005316 4.96534312 8.03106174 9.44386266 8.3125 16.75 C8.07016067 27.60680207 3.04071956 35.55126147 -4.6015625 42.98046875 C-11.74518364 48.99553736 -20.26054315 52.88705187 -29 56 C-29.70706685 64.13126878 -26.96261729 71.01155871 -21.75 77.25 C-12.79894564 86.65619272 -3.88149422 91.07031125 9.17285156 91.47265625 C24.48608243 91.61155177 39.92969887 90.10705494 51.796875 79.375 C59.15404743 71.50792453 60.55953777 63.07633036 61.14160156 52.65136719 C61.5693214 46.59241023 61.5693214 46.59241023 63.8515625 43.453125 C67.04003936 41.29655519 69.22874238 41.54484822 73 42 C78.65116279 44.30232558 78.65116279 44.30232558 80 47 C81.09555514 61.88877395 78.51778689 75.74198467 68.890625 87.59765625 C58.12505348 99.86246005 45.97493212 106.92789767 30 110 C28.89184619 113.75374624 27.86623888 117.49722331 26.9921875 121.3125 C23.31583715 137.00704648 17.75891469 149.57467154 6 161 C5.06414062 161.96679688 5.06414062 161.96679688 4.109375 162.953125 C-7.19505587 173.877575 -23.20279376 177.54396162 -38.4375 177.375 C-39.47970703 177.38660156 -40.52191406 177.39820313 -41.59570312 177.41015625 C-59.46122634 177.34370049 -74.17889583 170.47062306 -86.9296875 158.1328125 C-98.46060978 145.78191352 -106.32845913 127.0201547 -106 110 C-106.65484375 109.91363281 -107.3096875 109.82726562 -107.984375 109.73828125 C-123.06364917 107.41675458 -136.16368761 100.49622332 -146.08203125 88.7578125 C-153.09933229 78.66776254 -158.31249759 67.27359675 -158.5 54.875 C-158.54125 54.18535156 -158.5825 53.49570312 -158.625 52.78515625 C-158.668177 49.96246004 -158.53751836 47.69474944 -156.77392578 45.4152832 C-154.02732512 42.9793977 -151.5914919 41.30960453 -147.875 41.4375 C-144 42 -144 42 -141.84765625 43.3984375 C-138.60077052 47.97016245 -138.81086968 53.47468698 -138.31054688 58.93945312 C-137.28606704 68.05536609 -133.75733337 75.17497255 -126.984375 81.44140625 C-115.54860081 90.42344149 -99.17950099 93.3144381 -85 92 C-74.27236769 90.5947429 -63.89146818 86.72509241 -56.5 78.5 C-52.04748889 72.65525828 -48.95434118 67.31197369 -48.984375 59.87109375 C-48.99210937 57.95490234 -48.99210937 57.95490234 -49 56 C-50.02738281 55.5153125 -51.05476563 55.030625 -52.11328125 54.53125 C-66.63481313 47.56035253 -79.51278029 40.44503047 -85.3046875 24.578125 C-86.88111102 18.73295915 -86.89081939 13.33634632 -84.4375 7.75 C-80.34705754 0.65608581 -73.71792813 -3.63574514 -66 -6 C-47.35323664 -10.27878794 -15.96998976 -12.66702812 0 0 Z"/>
<path style="fill: #FA7D7F;" transform="translate(517,607)" d="M0 0 C5.28 2.64 10.56 5.28 16 8 C24.95189144 10.9580163 33.65867896 12.82069701 43 14 C42.66682292 28.84152465 37.56871482 40.70769534 26.94140625 50.9921875 C14.86975241 61.31400528 1.76128588 62.1803062 -13.47949219 61.23925781 C-18.53267801 60.75958694 -22.59809155 59.4765328 -27 57 C-27.92683594 56.51402344 -28.85367187 56.02804687 -29.80859375 55.52734375 C-40.75263931 49.24602587 -47.42311883 40.04844182 -51 28 C-51.89537595 23.34967044 -52.53301763 18.71164306 -53 14 C-52.4423999 13.91024902 -51.8847998 13.82049805 -51.31030273 13.72802734 C-38.30723733 11.58288887 -25.6550866 9.23924484 -14.21875 2.31640625 C-12 1 -12 1 -10 1 C-9.97494385 2.145896 -9.9498877 3.29179199 -9.92407227 4.47241211 C-9.83016894 8.70853598 -9.72990725 12.94448928 -9.62768555 17.18041992 C-9.5842718 19.01664247 -9.54260161 20.85290708 -9.50268555 22.68920898 C-9.44513831 25.32288311 -9.38140002 27.95634421 -9.31640625 30.58984375 C-9.29969376 31.41588608 -9.28298126 32.24192841 -9.26576233 33.09300232 C-9.52192567 36.85476753 -9.52192567 36.85476753 -8 40 C-5.69 40 -3.38 40 -1 40 C-0.67 26.8 -0.34 13.6 0 0 Z"/>
<path style="fill: #1A1614;" transform="translate(600.4375,426.5625)" d="M0 0 C5.59962634 3.33846644 9.61008102 8.22525779 11.5625 14.4375 C12.3326583 22.43460891 12.89890919 30.90859714 7.5625 37.4375 C1.92936781 43.45416459 -3.00054329 46.39436803 -11.3125 46.8125 C-17.34447871 46.65853057 -21.66795554 44.91815773 -26.16015625 40.89453125 C-32.39331364 34.20192737 -34.03979933 27.37776665 -33.7890625 18.33984375 C-32.83044121 10.42589244 -28.30555115 5.62295388 -22.3125 0.6875 C-16.34872081 -3.2883528 -6.38151807 -2.89394424 0 0 Z"/>
<path style="fill: #1A1614;" transform="translate(443.51953125,425.91015625)" d="M0 0 C5.81609383 3.45851851 10.5195988 8.60815859 12.97265625 14.98046875 C14.69379473 22.1298132 14.24403821 29.48758062 10.87890625 36.05078125 C7.68759987 40.70402687 3.62781686 44.01616969 -1.39453125 46.52734375 C-8.2600248 47.76313259 -14.42699916 48.02937522 -20.6328125 44.4921875 C-25.65246061 40.76122752 -29.67461917 36.11191525 -31.51953125 30.08984375 C-32.28901837 22.09970419 -32.84442827 13.6256503 -27.51953125 7.08984375 C-19.96674358 -0.70827809 -10.75961012 -3.8868049 0 0 Z"/>
<path style="fill: #E27D80;" transform="translate(507,608)" d="M0 0 C0.02505615 1.14065918 0.0501123 2.28131836 0.07592773 3.45654297 C0.16994293 7.67964341 0.27017787 11.90257709 0.37231445 16.12548828 C0.41568565 17.95487575 0.45735911 19.78430427 0.49731445 21.61376953 C0.55496418 24.24003486 0.61867365 26.8660931 0.68359375 29.4921875 C0.70030624 30.31306854 0.71701874 31.13394958 0.73423767 31.97970581 C0.7431387 36.1233696 0.7431387 36.1233696 2 40 C-1 39 -1 39 -2 37 C-2.14440323 34.47219911 -2.23401544 31.96742215 -2.28125 29.4375 C-2.29965942 28.69040771 -2.31806885 27.94331543 -2.33703613 27.17358398 C-2.41578832 23.97166389 -2.48347255 20.76953025 -2.55224609 17.56738281 C-2.60395725 15.23231566 -2.66121399 12.89742969 -2.71875 10.5625 C-2.73911316 9.47183228 -2.73911316 9.47183228 -2.7598877 8.35913086 C-2.79543861 4.55293559 -2.79543861 4.55293559 -4 1 C-2 0 -2 0 0 0 Z"/>





<path style="fill: #241C15;" transform="translate(517,502)" d="M0 0 C1.45742463 -0.08096803 2.91612807 -0.13917774 4.375 -0.1875 C5.18710937 -0.22230469 5.99921875 -0.25710938 6.8359375 -0.29296875 C7.55007813 -0.19628906 8.26421875 -0.09960938 9 0 C9.66 0.99 10.32 1.98 11 3 C0.44 3 -10.12 3 -21 3 C-21 2.67 -21 2.34 -21 2 C-14.07 2 -7.14 2 0 2 C0 1.34 0 0.68 0 0 Z"/>
<path style="fill: #FBDD3C;" transform="translate(338,345)" d="M0 0 C0.66 0.33 1.32 0.66 2 1 C1.40832031 1.56847656 0.81664062 2.13695312 0.20703125 2.72265625 C-5.19116164 7.97388555 -5.19116164 7.97388555 -9.75 13.9375 C-12.06038741 17.08219397 -13.2830801 18.0442206 -17 19 C-12.13998705 11.84327206 -6.18597308 5.98784583 0 0 Z"/>



<path style="fill: #261C15;" transform="translate(699,627)" d="M0 0 C0.64775391 0.86431641 0.64775391 0.86431641 1.30859375 1.74609375 C2.38242914 3.17704761 3.45777404 4.60687092 4.53515625 6.03515625 C5.03917969 6.70417969 5.54320312 7.37320313 6.0625 8.0625 C6.56910156 8.73410156 7.07570313 9.40570312 7.59765625 10.09765625 C8.77792898 11.69875045 9.896642 13.344963 11 15 C10.01 15 9.02 15 8 15 C5.95703125 12.734375 5.95703125 12.734375 3.8125 9.75 C3.09707031 8.77546875 2.38164063 7.8009375 1.64453125 6.796875 C0 4 0 4 0 0 Z"/>




<path style="fill: #F6CD3B;" transform="translate(326,357)" d="M0 0 C0.99 0.33 1.98 0.66 3 1 C0.6875 3.5 0.6875 3.5 -2 6 C-2.99 6 -3.98 6 -5 6 C-3.35 4.02 -1.7 2.04 0 0 Z"/>
<path style="fill: #1C1A27;" transform="translate(404,680)" d="M0 0 C1.875 0.25 1.875 0.25 4 1 C5.25 3.0625 5.25 3.0625 6 5 C3 5 3 5 1.3125 3.625 C0 2 0 2 0 0 Z"/>
</svg>